# xmcd CD database file
# Copyright (C) 1993-1998 Ti Kan
#
# Track frame offsets:
# 180
# 16238
# 32358
# 46164
# 60785
# 73610
# 90183
# 100279
# 119656
# 132113
# 141702
# 156407
# 176351
# 188360
# 200728
# 219250
# 235660
# 250467
# 266932
# 279771
#
# Disc length: 3949 seconds
# Revision: 0
# Processed by: cddbd v1.4b41PL1 Copyright (c) Steve Scherf et al.
# Submitted via: CDSpectrumPro v3.3.335
#
DISCID=120f6b14
DTITLE=Various Artist - Bitter Sweet Nothing
DYEAR=1900
DGENRE=
TTITLE0=Harbinger - Little Green Men
TTITLE1=Simple Symon - Perplexed
TTITLE2=Angry Red - Magnolia-Nation of Fools
TTITLE3=The Sneaches - Fade Out
TTITLE4=Soda Pop Spys - Tom Sellick
TTITLE5=Lucy Loves Schröder - Mind Over Matter
TTITLE6=Leopold Green - Catalyst
TTITLE7=Dayzy Chain - Better Than I Am
TTITLE8=The Drones - I Can't Wait
TTITLE9=Envy - Evil Thoughts
TTITLE10=Harbinger - Grass
TTITLE11=Simple Symon - Lunatic Cringe
TTITLE12=Angry Red - The Conformity Cook
TTITLE13=The Sneaches - Hex On Me
TTITLE14=Soda Pop Spys - Sting Ray
TTITLE15=Lucy Loves Schröder - Burn Your Buffy-3 Months Later On
TTITLE16=Leopold Green - Used To Be
TTITLE17=Dayzy Chain - Winter
TTITLE18=The Drones - Lesbian
TTITLE19=Envy - Shiver
EXTD=
EXTT0=
EXTT1=
EXTT2=
EXTT3=
EXTT4=
EXTT5=
EXTT6=
EXTT7=
EXTT8=
EXTT9=
EXTT10=
EXTT11=
EXTT12=
EXTT13=
EXTT14=
EXTT15=
EXTT16=
EXTT17=
EXTT18=
EXTT19=
PLAYORDER=
